<?xml version="1.0" encoding="iso-8859-1"?>
<!-- Generator: Adobe Illustrator 19.0.0, SVG Export Plug-In . SVG Version: 6.00 Build 0)  -->
<svg version="1.1" id="Layer_1" xmlns="http://www.w3.org/2000/svg" xmlns:xlink="http://www.w3.org/1999/xlink" x="0px" y="0px"
	 viewBox="0 0 512 512" style="enable-background:new 0 0 512 512;" xml:space="preserve">
<g>
	<g>
		<path d="M256,0C114.842,0,0,114.842,0,256s114.842,256,256,256s256-114.842,256-256S397.158,0,256,0z M256,43.707
			c10.345,0,18.732,8.387,18.732,18.732S266.345,81.171,256,81.171s-18.732-8.387-18.732-18.732S245.655,43.707,256,43.707z
			 M97.737,369.002c-8.959,5.174-20.415,2.103-25.588-6.856c-5.172-8.959-2.103-20.415,6.856-25.588
			c8.96-5.174,20.416-2.103,25.587,6.856C109.765,352.373,106.696,363.83,97.737,369.002z M104.593,168.585
			c-5.172,8.959-16.628,12.029-25.587,6.856c-8.959-5.174-12.028-16.629-6.856-25.588c5.174-8.959,16.629-12.029,25.588-6.856
			C106.696,148.17,109.765,159.627,104.593,168.585z M305.951,399.61h-99.902v-37.463h99.902V399.61z M288.526,237.418
			c3.136,5.477,4.938,11.817,4.938,18.582c0,20.69-16.774,37.463-37.463,37.463S218.537,276.69,218.537,256
			S235.31,218.537,256,218.537c0.055,0,0.11,0.004,0.166,0.005l71.068-121.833l32.361,18.875L288.526,237.418z M414.263,142.998
			c8.959-5.174,20.415-2.103,25.588,6.856c5.172,8.959,2.103,20.415-6.856,25.588c-8.96,5.174-20.416,2.103-25.588-6.856
			C402.233,159.627,405.303,148.17,414.263,142.998z M439.85,362.146c-5.174,8.959-16.629,12.029-25.587,6.856
			c-8.959-5.172-12.028-16.629-6.856-25.588c5.172-8.959,16.628-12.029,25.588-6.856
			C441.953,341.733,445.023,353.188,439.85,362.146z"/>
	</g>
</g>
<g>
</g>
<g>
</g>
<g>
</g>
<g>
</g>
<g>
</g>
<g>
</g>
<g>
</g>
<g>
</g>
<g>
</g>
<g>
</g>
<g>
</g>
<g>
</g>
<g>
</g>
<g>
</g>
<g>
</g>
</svg>
